<svg width="64" height="64" viewBox="0 0 64 64" fill="none" xmlns="http://www.w3.org/2000/svg">
<g filter="url(#filter0_i_1_11)">
<rect width="64" height="64" fill="#FF0000"/>
</g>
<rect x="0.5" y="0.5" width="63" height="63" stroke="black"/>
<path d="M53.364 3.05837C53.2887 3.09428 53.1869 3.17061 53.1382 3.23795C53.054 3.3412 53.0142 3.35467 52.7529 3.35467C52.5138 3.35467 52.4606 3.3412 52.4606 3.28284C52.4606 3.24244 52.4252 3.17958 52.3853 3.14816C52.2658 3.05388 52.2304 3.07633 52.3056 3.18856C52.3411 3.24693 52.3588 3.30978 52.3411 3.32325C52.3278 3.3412 51.8229 3.35467 51.2207 3.35467C48.0456 3.35467 45.1008 3.67342 42.1958 4.32888L41.474 4.4905L41.0001 4.37378C40.4599 4.2346 40.0348 4.16277 39.7646 4.16277C39.2465 4.16277 38.8657 4.36929 38.8657 4.65661C38.8657 4.77783 38.8524 4.79578 38.7904 4.76885C38.0509 4.45459 36.4744 4.38724 35.54 4.62967C34.8359 4.80925 34.3709 5.09658 34.1407 5.50063C34.0299 5.68918 34.0167 5.75652 34.0167 6.12017C34.0167 6.51524 34.0211 6.53769 34.2248 6.95072C34.3399 7.18417 34.5392 7.5119 34.6632 7.67801C34.7872 7.84412 34.8846 7.98778 34.8758 7.99676C34.8669 8.00125 34.6322 8.1494 34.3532 8.32C33.8838 8.60732 33.8572 8.62977 33.9768 8.65222C34.0919 8.67466 34.1052 8.69262 34.0919 8.83179C34.0654 9.17748 33.3214 10.2819 32.2763 11.5255C31.6519 12.2707 30.3589 13.5906 30.2482 13.5906C30.102 13.5906 29.1632 13.851 28.6141 14.0395C27.8923 14.291 26.8162 14.8252 26.2007 15.2382C25.6117 15.6378 24.9607 16.2663 24.7526 16.6479C24.4471 17.2001 23.9555 17.447 22.7289 17.6536C21.9672 17.7837 21.9628 17.7882 22.3037 17.9319C22.4587 17.9992 22.5252 18.0531 22.5252 18.1115C22.5252 18.3853 21.8831 18.9824 20.1117 20.3472C18.9205 21.2676 18.3581 21.7659 17.716 22.4752C14.4656 26.0713 12.7873 29.8199 12.34 34.4665C12.2603 35.2881 12.2337 37.4834 12.2913 38.4397C12.3799 39.8898 12.6013 41.8965 12.8183 43.2524L12.898 43.7552L12.7297 43.9258C12.5216 44.1323 12.4729 44.2984 12.4729 44.8057C12.4729 45.2726 12.4197 45.4297 12.1717 45.6542C11.937 45.8652 11.7333 45.973 11.1842 46.1615C10.9362 46.2423 10.7148 46.3321 10.6882 46.3591C10.5908 46.4578 10.7237 46.4892 11.0469 46.4399C11.3658 46.395 11.4853 46.4219 11.4189 46.5252C11.4012 46.5476 11.1842 46.7362 10.9362 46.9382C8.84606 48.6442 7.54414 50.3951 7.11016 52.0921C6.96403 52.6577 6.96403 53.5467 7.10573 54.0629C7.65927 56.0338 9.76273 57.3088 13.1814 57.7488C13.9076 57.843 16.2325 57.8835 17.1315 57.8161C19.2571 57.6545 21.0018 57.3627 23.8315 56.6938C27.104 55.9216 29.1278 55.6387 31.7804 55.5804C37.4708 55.4636 42.3375 56.9272 46.3761 59.9755C46.6241 60.1641 46.8677 60.3392 46.9208 60.3661C47.0094 60.4155 47.0138 60.411 46.9872 60.2943C46.8411 59.6882 46.0351 58.714 45.0299 57.9328C41.8238 55.4412 37.0323 53.9731 31.5147 53.7891C30.536 53.7577 29.4599 53.807 28.0163 53.9552C26.6391 54.0944 26.0191 54.1797 22.2152 54.7588C17.747 55.4367 16.6665 55.5489 14.8154 55.5085C13.6907 55.4861 13.2168 55.4322 12.65 55.2482C12.0655 55.0596 11.813 54.898 11.3171 54.3996C10.9229 54.0001 10.8211 53.8699 10.6617 53.5467C10.2454 52.6847 10.3384 51.9798 10.9805 51.1313C12.309 49.3804 16.5026 47.7553 20.5103 47.4365C21.1524 47.3871 22.7111 47.4051 22.9768 47.4679C23.0831 47.4904 23.1141 47.5398 23.1894 47.7957C23.2913 48.1503 23.371 48.2671 23.557 48.3703C23.7784 48.4915 24.3718 48.4691 25.1202 48.3165L25.7445 48.1907L25.9173 48.276C26.059 48.3434 26.1342 48.4377 26.3158 48.7654C26.4885 49.0662 26.5904 49.2009 26.7276 49.2907C27.0819 49.5196 27.9056 49.6049 30.3854 49.6857C32.4092 49.7486 33.2284 49.8788 34.0831 50.2694C34.8669 50.624 35.0263 50.6465 36.284 50.5657C36.7932 50.5297 36.8818 50.5342 36.9792 50.5971C37.0722 50.6599 37.0855 50.6959 37.0633 50.826C37.0456 50.9562 37.0589 50.9922 37.1563 51.055C37.2538 51.1224 37.3645 51.1358 37.7453 51.1313C38.0199 51.1268 38.2369 51.1044 38.2723 51.073C38.3077 51.046 38.3343 50.9428 38.3343 50.8485C38.3343 50.6375 38.3166 50.642 38.9808 50.7632C39.2465 50.8126 39.5344 50.853 39.6229 50.853C39.8089 50.853 39.955 50.7587 39.9152 50.6644C39.893 50.6016 39.9418 50.5971 40.2517 50.615C40.637 50.6375 40.9248 50.5746 41.0046 50.4444C41.0356 50.3951 41.009 50.3322 40.885 50.1975C40.8009 50.1032 40.6016 49.7845 40.451 49.4927C40.141 48.9046 39.8842 48.6083 39.6761 48.6083C39.5786 48.6038 39.5255 48.5634 39.4281 48.4062C39.2598 48.1369 39.0207 48.0246 38.476 47.9753C38.2413 47.9528 37.0589 47.9259 35.8544 47.9124C33.5827 47.8855 32.7413 47.8451 32.0815 47.7283C31.5855 47.643 30.9877 47.4679 30.66 47.3153L30.3987 47.1941L30.7353 46.9561C30.9213 46.826 31.156 46.6778 31.2622 46.6329C31.4969 46.5297 32.4667 46.3546 32.7989 46.3591C33.1 46.3591 33.7111 46.5207 34.4152 46.7855C35.0972 47.0459 35.5223 47.1537 36.1024 47.2255C36.6294 47.2839 37.1519 47.2345 37.5505 47.0819C37.7586 47.001 37.7852 47.001 37.9889 47.0684C38.1394 47.1178 38.2811 47.1312 38.4406 47.1088C38.6354 47.0863 38.6885 47.0953 38.7505 47.1672C38.7904 47.212 38.9498 47.3108 39.1004 47.3782C39.3971 47.5173 39.2687 47.5084 40.823 47.4904L41.257 47.4859L41.3234 47.3512C41.3588 47.2794 41.443 47.2031 41.5005 47.1896C41.6865 47.1447 41.7042 47.0459 41.5802 46.7003C41.5182 46.5252 41.4208 46.2244 41.3632 46.0268C41.3057 45.8338 41.2393 45.6542 41.2171 45.6318C41.1994 45.6138 40.9337 45.5554 40.6326 45.5061C40.3314 45.4567 39.7646 45.3489 39.3749 45.2636C38.4583 45.0661 37.6966 44.9539 36.5187 44.8371C34.6455 44.6576 34.2204 44.5767 33.7997 44.3253L33.6004 44.2086L33.8041 43.7686C34.1362 43.0503 34.3754 42.4532 34.5436 41.919C34.7163 41.3803 34.8802 40.5273 34.8802 40.1546C34.8846 39.8763 34.9953 39.58 35.3186 39.0233C36.1954 37.5104 36.4744 36.9043 36.4744 36.4823C36.4744 36.3072 36.4434 36.2398 36.2574 35.9929C35.881 35.5036 35.9208 35.3958 36.3592 35.7011C36.5231 35.8133 36.6737 35.9031 36.7002 35.9031C36.8021 35.9031 36.9261 35.4407 37.2228 33.9502C37.391 33.0838 37.6213 32.0647 37.732 31.6786C38.1704 30.1207 38.7063 28.9265 39.4015 27.9434L39.6938 27.5303L40.048 27.4989C40.5352 27.4585 40.9603 27.3014 41.8061 26.8569C42.9353 26.2598 43.356 26.1476 44.4454 26.1431C45.3133 26.1386 45.3133 26.1386 45.3399 26.7312C45.362 27.2161 45.4373 27.4316 45.672 27.6471C45.8979 27.8581 46.6728 28.3654 46.7348 28.3429C46.8455 28.298 46.7924 28.114 46.5931 27.867C46.3318 27.5438 46.3274 27.4226 46.5887 27.1712C46.8721 26.8928 47.0625 26.8569 47.585 26.9916C47.8375 27.0589 48.0412 27.1397 48.1032 27.1981C48.2449 27.3328 48.3866 27.7817 48.4176 28.1813C48.4663 28.8547 48.2404 29.2857 47.4345 30.0489C46.8854 30.5787 46.8322 30.6819 47.1466 30.637C47.3415 30.6101 47.5585 30.4709 48.2316 29.9322C48.6788 29.573 49.1305 29.2588 49.2014 29.2588C49.2545 29.2588 49.228 29.5371 49.1571 29.6763C49.1172 29.7571 48.9977 29.9412 48.8958 30.0893C48.5681 30.5607 48.5416 30.6954 48.7851 30.6954C48.9357 30.6954 49.042 30.5742 49.3874 30.0085C49.6929 29.5057 49.9321 29.169 49.9808 29.169C50.025 29.169 50.087 29.4653 50.1623 30.0444C50.1889 30.2644 50.2332 30.4978 50.2553 30.5607C50.2952 30.6729 50.2996 30.6729 50.366 30.5831C50.8133 29.9861 50.6672 29.0208 49.9586 27.9119C49.5689 27.2969 48.7453 26.3451 48.3467 26.0533C48.236 25.968 47.9216 25.7884 47.6515 25.6492C47.2131 25.4248 46.9208 25.2183 47.0448 25.2183C47.2042 25.2183 47.9393 25.0566 48.5548 24.886C49.5734 24.5987 50.1535 24.5179 50.6406 24.5808C50.9683 24.6257 51.0613 24.6616 51.3535 24.8456C52.0089 25.2676 52.2304 25.3574 52.5315 25.3485C52.8547 25.3395 53.0585 25.4427 53.2577 25.7211C53.4349 25.9635 53.4703 26.0982 53.5367 26.7357C53.5677 27.0365 53.6164 27.3059 53.6474 27.3373C53.674 27.3642 53.7448 27.3732 53.8113 27.3552C53.9884 27.3103 54.0593 27.0814 54.0991 26.4214C54.1478 25.739 54.1788 25.5325 54.2541 25.5056C54.356 25.4652 54.6482 25.5729 54.8165 25.7121C55.0158 25.8782 55.2682 26.3765 55.4719 26.9871C55.5516 27.2295 55.6357 27.4136 55.6623 27.4046C55.6889 27.3956 55.7509 27.3328 55.7996 27.2654C55.9413 27.0769 55.9191 26.5561 55.742 25.8513C55.6623 25.546 55.6092 25.2901 55.618 25.2811C55.6269 25.2676 55.7464 25.3305 55.8837 25.4158C56.2158 25.6178 56.6055 25.775 56.6897 25.739C56.7561 25.7166 56.7517 25.6986 56.6808 25.5729C56.4771 25.2272 55.8306 24.6481 55.1973 24.2485C54.3604 23.7188 53.8246 23.5123 52.2614 23.1082C49.1438 22.3046 47.3503 21.7614 45.9067 21.1912C45.3222 20.9578 44.4321 20.5268 44.1221 20.3248L43.914 20.1901L44.0247 20.0644C44.2328 19.8399 44.5694 19.0587 45.0255 17.7433C45.5347 16.2708 45.8359 15.557 46.1813 14.9958C46.478 14.5109 46.9518 14.0171 47.3016 13.8285C47.5098 13.7163 47.6338 13.5996 47.8773 13.2988C48.4796 12.5356 49.3032 11.8173 50.2553 11.2157C50.8664 10.8251 51.8805 10.2684 52.0178 10.237C52.0798 10.228 52.3012 10.2594 52.5138 10.3088C52.7219 10.3627 52.9522 10.4031 53.0186 10.4031C53.3507 10.3986 53.7448 10.0754 53.9663 9.62194C54.1212 9.31216 54.1345 9.13708 54.015 9.01586C53.9308 8.93056 53.6651 8.83179 53.5146 8.83179C53.2976 8.83179 53.6164 8.60732 54.0238 8.47713C54.2541 8.40081 54.2895 8.30653 54.2541 7.86656L54.2231 7.49843L54.5154 7.26498C54.6748 7.13478 54.8918 6.92827 55.0069 6.80257L55.2062 6.57809L56.0919 6.63197C56.579 6.66339 56.9908 6.68135 56.9997 6.66788C57.0129 6.65441 56.6365 6.60952 56.1583 6.56462C55.6844 6.51973 55.277 6.47035 55.2505 6.45239C55.2195 6.43443 55.2283 6.35811 55.277 6.21894C55.3346 6.03936 55.37 5.99895 55.5516 5.92263C55.6667 5.87325 55.804 5.81938 55.8616 5.80142C55.9191 5.78346 55.959 5.76101 55.9457 5.75204C55.9369 5.74306 55.7907 5.77448 55.6269 5.82836C55.2726 5.9361 55.2682 5.9361 55.2239 5.52307L55.1973 5.24024L55.4409 4.97536C55.7332 4.65212 55.8439 4.36031 55.8173 4.00115C55.7952 3.71383 55.6712 3.5567 55.432 3.49385C55.2283 3.43997 54.139 3.35467 53.6651 3.35467C53.4659 3.35467 53.302 3.33671 53.302 3.31876C53.302 3.25142 53.4127 3.13918 53.5456 3.06735C53.6518 3.01347 53.6607 3.00001 53.5899 3.00001C53.5411 3.00001 53.4393 3.02694 53.364 3.05837Z" fill="black"/>
<defs>
<filter id="filter0_i_1_11" x="0" y="0" width="64" height="68" filterUnits="userSpaceOnUse" color-interpolation-filters="sRGB">
<feFlood flood-opacity="0" result="BackgroundImageFix"/>
<feBlend mode="normal" in="SourceGraphic" in2="BackgroundImageFix" result="shape"/>
<feColorMatrix in="SourceAlpha" type="matrix" values="0 0 0 0 0 0 0 0 0 0 0 0 0 0 0 0 0 0 127 0" result="hardAlpha"/>
<feOffset dy="4"/>
<feGaussianBlur stdDeviation="2"/>
<feComposite in2="hardAlpha" operator="arithmetic" k2="-1" k3="1"/>
<feColorMatrix type="matrix" values="0 0 0 0 0 0 0 0 0 0 0 0 0 0 0 0 0 0 0.25 0"/>
<feBlend mode="normal" in2="shape" result="effect1_innerShadow_1_11"/>
</filter>
</defs>
</svg>
